<svg xmlns="http://www.w3.org/2000/svg" xmlns:xlink="http://www.w3.org/1999/xlink" viewBox="0 0 1024 1024"><defs><style>.a74df702-a439-4e8d-9911-c624ee3395f1,.f492e7e0-8e5c-4ae5-b29b-a588a12ae5d0{fill:#fff;}.a74df702-a439-4e8d-9911-c624ee3395f1{filter:url(#b0a574b4-6180-4f74-b134-49d0535cee45);}.b20a9a9a-a31f-4a74-9c09-92ee539089f1{isolation:isolate;}.f63cebc6-3415-4622-8fa6-ccce84d8b9da{fill:url(#a8d96e4b-ac9c-4338-9f38-da6e7befd4bb);}.fc1183d4-d52a-490e-bdda-c599668fc371{mix-blend-mode:overlay;opacity:0.3;fill:url(#a262886e-3714-4fb4-9343-ec3aef13d775);}.f3c2993d-3753-4ce5-afeb-4ccd7d1225d4{mask:url(#e13becd2-8f0b-445f-a4a2-3a00b12bef07);}.e5ab5dfd-6616-4ad6-b8d5-fc8f42aaf1c6{fill:#f5ebff;}</style><linearGradient id="a8d96e4b-ac9c-4338-9f38-da6e7befd4bb" x1="1018.35" y1="5.65" x2="-35.56" y2="1059.56" gradientUnits="userSpaceOnUse"><stop offset="0" stop-color="#2ab6cb"/><stop offset="1" stop-color="#98dfea"/></linearGradient><radialGradient id="a262886e-3714-4fb4-9343-ec3aef13d775" cx="332.32" cy="383.49" r="453.85" gradientTransform="translate(276.56 -439.98) scale(0.68 1.46)" gradientUnits="userSpaceOnUse"><stop offset="0" stop-color="#f3ecf1"/><stop offset="0.09" stop-color="#ece6eb"/><stop offset="0.22" stop-color="#dad4d8"/><stop offset="0.38" stop-color="#bcb7ba"/><stop offset="0.55" stop-color="#928e91"/><stop offset="0.73" stop-color="#5c595b"/><stop offset="0.92" stop-color="#1b1b1b"/><stop offset="1"/></radialGradient><filter id="b0a574b4-6180-4f74-b134-49d0535cee45" x="189.83" y="198.41" width="644.33" height="627.18" filterUnits="userSpaceOnUse" color-interpolation-filters="sRGB"><feColorMatrix values="-1 0 0 0 1 0 -1 0 0 1 0 0 -1 0 1 0 0 0 1 0" result="invert"/><feFlood flood-color="#fff" result="bg"/><feBlend in="invert" in2="bg"/></filter><mask id="e13becd2-8f0b-445f-a4a2-3a00b12bef07" x="189.83" y="198.41" width="644.33" height="627.18" maskUnits="userSpaceOnUse"><path class="a74df702-a439-4e8d-9911-c624ee3395f1" d="M653.8,286.89a44.24,44.24,0,1,1,44.25-44.24A44.24,44.24,0,0,1,653.8,286.89ZM572.55,422.22a44.24,44.24,0,1,0-44.24,44.24A44.23,44.23,0,0,0,572.55,422.22ZM661,601.78A44.25,44.25,0,1,0,616.8,646,44.24,44.24,0,0,0,661,601.78ZM572.55,781.35a44.24,44.24,0,1,0-44.24,44.24A44.24,44.24,0,0,0,572.55,781.35Z"/></mask></defs><g class="b20a9a9a-a31f-4a74-9c09-92ee539089f1"><g id="b9a0e7d9-1aaf-4a9a-9fb9-2bb933ea5fd9" data-name="Layer 1"><rect class="f63cebc6-3415-4622-8fa6-ccce84d8b9da" width="1024" height="1024"/><rect class="fc1183d4-d52a-490e-bdda-c599668fc371" width="1024" height="1024"/><g class="f3c2993d-3753-4ce5-afeb-4ccd7d1225d4"><path class="f492e7e0-8e5c-4ae5-b29b-a588a12ae5d0" d="M189.83,242.65a18.33,18.33,0,0,1,18.34-18.33H815.83a18.34,18.34,0,1,1,0,36.67H208.17A18.34,18.34,0,0,1,189.83,242.65Z"/><path class="f492e7e0-8e5c-4ae5-b29b-a588a12ae5d0" d="M189.83,422.22a18.34,18.34,0,0,1,18.34-18.34H815.83a18.34,18.34,0,1,1,0,36.67H208.17A18.34,18.34,0,0,1,189.83,422.22Z"/><path class="f492e7e0-8e5c-4ae5-b29b-a588a12ae5d0" d="M189.83,601.78a18.33,18.33,0,0,1,18.34-18.33H815.83a18.33,18.33,0,1,1,0,36.66H208.17A18.33,18.33,0,0,1,189.83,601.78Z"/><path class="f492e7e0-8e5c-4ae5-b29b-a588a12ae5d0" d="M189.83,781.35A18.33,18.33,0,0,1,208.17,763H815.83a18.33,18.33,0,1,1,0,36.66H208.17A18.33,18.33,0,0,1,189.83,781.35Z"/></g><path class="e5ab5dfd-6616-4ad6-b8d5-fc8f42aaf1c6" d="M593.85,242.65a60,60,0,1,1,59.95,60A60,60,0,0,1,593.85,242.65Zm88.48,0a28.53,28.53,0,1,0-28.53,28.52A28.56,28.56,0,0,0,682.33,242.65Z"/><path class="e5ab5dfd-6616-4ad6-b8d5-fc8f42aaf1c6" d="M468.36,422.22a60,60,0,1,1,59.95,59.95A60,60,0,0,1,468.36,422.22Zm88.48,0a28.53,28.53,0,1,0-28.53,28.52A28.56,28.56,0,0,0,556.84,422.22Z"/><path class="e5ab5dfd-6616-4ad6-b8d5-fc8f42aaf1c6" d="M556.84,601.78a60,60,0,1,1,60,60A60,60,0,0,1,556.84,601.78Zm88.48,0a28.53,28.53,0,1,0-28.52,28.53A28.55,28.55,0,0,0,645.32,601.78Z"/><path class="e5ab5dfd-6616-4ad6-b8d5-fc8f42aaf1c6" d="M468.36,781.35a60,60,0,1,1,59.95,60A60,60,0,0,1,468.36,781.35Zm88.48,0a28.53,28.53,0,1,0-28.53,28.52A28.56,28.56,0,0,0,556.84,781.35Z"/></g></g></svg>